<svg id="Layer_1" enable-background="new 0 0 512 512" height="512" viewBox="0 0 512 512" width="512" xmlns="http://www.w3.org/2000/svg"><g><path d="m134.551 466.284c-20.585 0-34.81-12.371-42.43-24.79-7.616-12.419-9.156-27.628-4.184-41.321 4.722-11.901 3.783-25.302-2.562-36.423l-1.509-2.513c-35.287 4.512-61.96 34.14-62.732 69.678-.776 35.539 25.64 73.653 97.954 73.653z" fill="#ea8857"/><g><path d="m436.764 491.656v12.91h-322.8v-12.92c0-17.452 14.148-31.6 31.6-31.6h16.01l-10.79-57.92c-4.53-24.29 5.9-48.03 24.96-61.5 6.25-4.42 13.43-7.73 21.31-9.6l11.52-2.73h133.57l11.52 2.73c7.89 1.87 15.07 5.18 21.32 9.6 19.05 13.48 29.48 37.22 24.95 61.5l-10.79 57.92h16.01c17.457 0 31.61 14.153 31.61 31.61z" fill="#f7aa74"/><path d="m436.764 491.656v12.91h-25.92c2.16 0 3.92-1.76 3.92-3.92v-8.99c0-17.458-14.152-31.61-31.61-31.61h-16.01l10.79-57.92c4.53-24.28-5.9-48.02-24.95-61.5-6.25-4.42-13.43-7.73-21.32-9.6l-11.52-2.73h22l11.52 2.73c7.89 1.87 15.07 5.18 21.32 9.6 19.05 13.48 29.48 37.22 24.95 61.5l-10.79 57.92h16.01c17.457 0 31.61 14.153 31.61 31.61z" fill="#ea8857"/><path d="m208.572 328.3v176.27h22.26c6.15 0 11.72-2.49 15.75-6.52s6.52-9.59 6.52-15.74v-76.14c0-12.29 9.96-22.26 22.26-22.26 6.15 0 11.71 2.49 15.74 6.52s6.52 9.59 6.52 15.74v76.14c0 12.29 9.97 22.26 22.26 22.26h22.26v-176.27z" fill="#ffc599"/><path d="m374.984 340.626c-28.75 17.7-62.95 27.98-99.62 27.98s-70.87-10.28-99.62-27.98c6.25-4.42 13.43-7.73 21.31-9.6l11.52-2.73h133.57l11.52 2.73c7.89 1.87 15.07 5.18 21.32 9.6z" fill="#ea8857"/><path d="m342.142 328.3v28.36c-20.72 7.72-43.24 11.95-66.78 11.95s-46.06-4.24-66.79-11.96v-28.35z" fill="#f7aa74"/></g><path d="m417.003 66.06v178.74c0 9.39-3.73 18.4-10.37 25.04l-46.2 45.81c-22.48 22.29-52.85 34.8-84.5 34.8-.4 0-.8 0-1.2-.02-15.16-.14-30.01-3.16-43.83-8.75-14.18-5.74-27.26-14.19-38.46-25.03l-48.35-46.81c-6.63-6.64-10.37-15.65-10.37-25.04v-178.38l59.6-43.34c.12-.05.24-.1.36-.14 52.59-20.86 111.17-20.82 163.73.12z" fill="#ffc599"/><path d="m417.003 66.06v178.74c0 9.39-3.73 18.4-10.37 25.04l-46.2 45.81c-3 2.98-6.14 5.78-9.41 8.39-21.2 17.02-47.67 26.41-75.09 26.41-.4 0-.8 0-1.2-.02v-185.83s11.59-75.82-14.74-92.53c-18.7-11.87-33.99 5.3-52.28-4.98-24.9-14-14.39-43.78-14.39-43.78l.36-.37c52.59-20.86 111.17-20.82 163.73.12l29.59 21.35z" fill="#ffece1"/><path d="m417.003 66.06v178.74c0 9.39-3.73 18.4-10.37 25.04l-46.2 45.81c-3 2.98-6.14 5.78-9.41 8.39 7.59-12.87 24.12-41.56 28.96-55.32 6.75-19.19 7.02-24.53 7.02-33.92v-190.39z" fill="#ffd2bb"/><path d="m295.399 254.489v10.328c0 11.065-8.97 20.035-20.035 20.035-11.065 0-20.035-8.97-20.035-20.035v-10.328l20.034-10z" fill="#ff2c2c"/><path d="m301.167 168.737c-16.756-5.54-34.85-5.54-51.605 0l25.803 25.803z" fill="#4a555b"/><g fill="#ea8857"><path d="m168.91 8.051c4.34-.111 8.193-.06 11.607.125 12.772.693 17.575 17.315 7.042 24.571-10.44 7.194-21.634 20.681-22.108 45.525-.894 46.969-23.475 177.629-56.908 167.026-25.841-8.196 23.673-49.809-32.275-105.179-55.94-55.37 45.44-130.849 92.642-132.068z"/><path d="m381.82 8.051c47.202 1.218 148.582 76.698 92.64 132.068-55.947 55.37-6.433 96.983-32.275 105.179-33.433 10.603-56.015-120.057-56.908-167.026-.474-24.845-11.667-38.331-22.108-45.525-10.533-7.256-5.729-23.878 7.042-24.571 3.416-.184 7.269-.236 11.609-.125z"/></g></g><g><path d="m212.725 135.39c0-6.906 5.623-12.524 12.535-12.524s12.535 5.618 12.535 12.524c0 4.139 3.358 7.494 7.5 7.494s7.5-3.355 7.5-7.494c0-15.17-12.352-27.512-27.535-27.512s-27.535 12.342-27.535 27.512c0 4.139 3.358 7.494 7.5 7.494s7.5-3.355 7.5-7.494z"/><path d="m325.468 107.878c-15.183 0-27.535 12.342-27.535 27.512 0 4.139 3.358 7.494 7.5 7.494s7.5-3.355 7.5-7.494c0-6.906 5.623-12.524 12.535-12.524s12.535 5.618 12.535 12.524c0 4.139 3.358 7.494 7.5 7.494s7.5-3.355 7.5-7.494c-.001-15.17-12.353-27.512-27.535-27.512z"/><path d="m493.692 81.106c-10.555-26.619-35.277-46.416-49.074-55.848-21.818-14.914-45.222-24.086-62.608-24.534-4.384-.112-8.49-.068-12.206.133-8.028.435-14.8 5.163-17.999 12.319-49.619-17.574-103.259-17.567-152.874.02-3.195-7.167-9.973-11.903-18.011-12.339-3.712-.199-7.817-.244-12.205-.133-17.383.448-40.787 9.621-62.605 24.535-13.797 9.431-38.519 29.229-49.074 55.847-9.427 23.775-4.601 46.042 13.957 64.396 5.99 5.924 10.991 11.984 14.863 18.013 2.238 3.483 6.878 4.496 10.363 2.259 3.486-2.235 4.499-6.871 2.261-10.354-4.466-6.953-10.164-13.875-16.935-20.571-14.148-13.993-17.703-30.217-10.563-48.222 15.124-38.142 70.193-70.2 98.119-70.92 3.99-.103 7.694-.063 11.009.115 3.975.216 5.191 3.453 5.469 4.441.271.96.907 4.266-2.276 6.457-11.264 7.755-24.805 22.989-25.35 51.517-.348 18.275-4.393 53.893-12.451 88.912-12.139 52.755-24.361 66.272-29.052 69.635-2.667 1.911-4.348 1.75-5.64 1.342-3.064-.971-3.888-1.232-1.42-15.417 1.537-8.839 3.45-19.839 1.901-32.721-.494-4.109-4.226-7.045-8.341-6.546-4.112.493-7.046 4.225-6.552 8.334 1.286 10.697-.347 20.084-1.788 28.367-2.098 12.065-4.71 27.081 11.665 32.27 1.712.543 3.783.958 6.113.958 3.742 0 8.151-1.072 12.805-4.408.385-.276.769-.566 1.151-.87.763 10.227 5.115 19.739 12.45 27.068.028.028.057.057.086.084l48.347 46.779c1.092 1.056 2.199 2.091 3.322 3.104-33.082 10.35-53.58 43.831-47.134 78.397l9.137 49.002h-6.984c-6.329 0-12.312 1.511-17.607 4.19l.029-.238c-12.27-1.514-23.014-8.422-29.476-18.953-6.441-10.503-7.738-23.164-3.563-34.75 5.544-14.065 4.43-29.651-3.063-42.781-.027-.048-.056-.096-.084-.144l-1.509-2.513c-1.532-2.552-4.431-3.955-7.384-3.578-18.847 2.41-36.225 11.51-48.933 25.623s-19.933 32.338-20.345 51.317c-.331 15.163 2.908 36.949 20.22 54.628 17.334 17.698 44.286 26.672 80.112 26.672h322.798c4.142 0 7.5-3.355 7.5-7.494v-12.91c0-21.544-17.542-39.071-39.103-39.071h-6.984l9.137-49.002c6.391-34.275-13.709-67.483-46.3-78.131 1.598-1.434 3.166-2.912 4.702-4.433l46.218-45.798c7.335-7.325 11.688-16.837 12.451-27.068.776.615 1.56 1.176 2.35 1.682 3.724 2.387 7.663 3.595 11.625 3.595 2.034 0 4.074-.319 6.094-.959 16.374-5.189 13.762-20.204 11.664-32.27-3.212-18.467-7.611-43.759 23.619-74.64 18.557-18.353 23.383-40.62 13.956-64.395zm-387.227 410.49v5.27c-27.849-1.106-48.647-8.5-61.888-22.022-13.666-13.955-16.214-31.532-15.946-43.821.334-15.392 6.194-30.173 16.5-41.619 9.198-10.215 21.411-17.192 34.797-19.963 4.261 8.742 4.658 18.792 1.036 27.919-.027.068-.054.137-.079.206-5.783 15.927-4.019 33.345 4.841 47.79 6.663 10.858 16.644 18.908 28.339 23.117-4.775 6.48-7.6 14.478-7.6 23.123zm150.211 5.416c2.497-4.349 3.926-9.386 3.926-14.75v-76.074c0-8.133 6.622-14.75 14.762-14.75s14.762 6.617 14.762 14.75v76.074c0 5.364 1.429 10.4 3.926 14.75zm77.974 0h-14.762c-8.14 0-14.762-6.617-14.762-14.75v-76.074c0-16.397-13.351-29.737-29.762-29.737s-29.762 13.34-29.762 29.737v76.074c0 8.133-6.622 14.75-14.762 14.75h-14.762v-98.173c0-4.139-3.358-7.494-7.5-7.494s-7.5 3.355-7.5 7.494v98.173h-79.613v-5.416c0-13.28 10.813-24.083 24.103-24.083h16.011c2.229 0 4.344-.991 5.769-2.705s2.013-3.971 1.604-6.161l-10.791-57.868c-5.257-28.196 12.392-55.47 40.224-62.284l2.693-.319v25.763c0 4.139 3.358 7.494 7.5 7.494s7.5-3.355 7.5-7.494v-20.895c18.232 9.704 38.68 14.858 59.85 14.858 20.768 0 40.794-4.936 58.722-14.25zm57.917-96.234-10.791 57.868c-.409 2.19.18 4.448 1.604 6.161s3.539 2.705 5.769 2.705h16.011c13.29 0 24.103 10.804 24.103 24.083v5.416h-79.613v-158.816l2.714.304c27.82 6.823 45.459 34.09 40.203 62.279zm76.616-265.929c-36.798 36.388-31.194 68.608-27.846 87.859 2.467 14.185 1.644 14.446-1.42 15.417-1.185.376-2.714.555-5.086-.966-10.987-7.042-20.381-35.918-23.91-48.007-6.435-22.044-12.055-50.272-15.42-77.445-.509-4.108-4.256-7.023-8.364-6.517-4.111.508-7.031 4.25-6.522 8.357 3.459 27.934 9.257 57.021 15.907 79.801 4.114 14.093 8.423 25.606 12.982 34.643v16.848c0 7.451-2.903 14.455-8.155 19.699l-46.197 45.778c-21.213 21.02-49.349 32.596-79.224 32.596-29.372 0-57.167-11.243-78.266-31.658l-48.301-46.734c-5.248-5.265-8.137-12.252-8.137-19.681v-16.889c6.922-13.672 13.242-32.868 18.897-57.444 8.298-36.061 12.467-72.961 12.829-91.985.261-13.675 4.068-24.68 11.34-32.848 1.791 10.317 7.282 20.929 19.742 27.934 11.241 6.319 21.354 4.487 30.279 2.871 8.114-1.469 14.521-2.629 21.664 1.904 15.013 9.528 15.529 51.161 12.164 79.023-7.107.566-14.148 1.97-20.932 4.211-2.471.817-4.342 2.854-4.943 5.385-.601 2.53.154 5.191 1.994 7.029l23.605 23.587v36.842c0 6.906-5.623 12.524-12.535 12.524h-20c-6.912 0-12.535-5.618-12.535-12.524 0-4.139-3.358-7.494-7.5-7.494s-7.5 3.355-7.5 7.494c0 15.17 12.352 27.512 27.535 27.512h12.5v2.826c0 15.17 12.352 27.512 27.535 27.512s27.535-12.342 27.535-27.512v-2.826h12.5c15.183 0 27.535-12.342 27.535-27.512 0-4.139-3.358-7.494-7.5-7.494s-7.5 3.355-7.5 7.494c0 6.906-5.623 12.524-12.535 12.524h-20c-6.912 0-12.535-5.618-12.535-12.524v-36.842l23.606-23.587c1.84-1.839 2.595-4.499 1.994-7.029s-2.472-4.568-4.943-5.385c-6.584-2.175-13.41-3.561-20.303-4.158 2.421-21.64 5.742-75.898-19.201-91.728-12.093-7.675-23.343-5.636-32.381-4-7.665 1.388-13.72 2.485-20.248-1.186-7.929-4.457-12.08-11.187-12.69-20.573-.269-4.142.246-7.936.781-10.559.067-.175.132-.352.195-.529 48.936-18.507 102.365-18.524 151.372-.027 1.416 4.034 4.101 7.61 7.869 10.203 12.178 8.384 18.525 21.661 18.865 39.461.08 4.138 3.528 7.44 7.642 7.349 4.142-.079 7.435-3.498 7.355-7.635-.545-28.528-14.086-43.761-25.352-51.517-3.182-2.191-2.545-5.496-2.275-6.457.278-.987 1.495-4.225 5.466-4.44 3.319-.178 7.025-.218 11.01-.116 27.928.72 82.997 32.779 98.121 70.92 7.14 18.008 3.586 34.232-10.563 48.225zm-193.819 49.068-11.018-11.009c7.293-1.075 14.742-1.074 22.036 0zm12.534 77.018v3.863c0 6.906-5.623 12.524-12.535 12.524s-12.535-5.618-12.535-12.524v-3.863c4.854-1.375 9.166-4.049 12.535-7.621 3.37 3.572 7.682 6.247 12.535 7.621z"/><circle cx="244.686" cy="223.89" r="7.5"/><circle cx="306.046" cy="223.896" r="7.5"/></g></svg>