<svg id="Capa_1" enable-background="new 0 0 512 512" height="512" viewBox="0 0 512 512" width="512" xmlns="http://www.w3.org/2000/svg"><g><path d="m512 256c0 114.74-75.49 211.85-179.51 244.37-23.15 7.25-47.72-25.36-73.19-25.04-1.1.01-2.2.02-3.3.02-22.56 0-44.43.47-65.27-4.8-.69-.17-1.39-.35-2.08-.54-6.89-1.88-13.67-4.03-20.32-6.46-18.2-6.63-35.43 17.76-51.44 7.38-37.3-24.19-67.9-57.82-88.43-97.51-18.18-35.17-28.46-75.1-28.46-117.42 0-141.38 114.62-256 256-256s256 114.62 256 256z" fill="#b1e4f9"/><g><path d="m306.574 0h-129.855c-30.066 0-54.439 24.373-54.439 54.439v138.588h238.733v-138.588c.001-30.066-24.373-54.439-54.439-54.439z" fill="#365e7d"/><path d="m253.387.001c-30.065 0-54.438 24.373-54.438 54.438v138.588h-76.669v-138.588c0-30.065 24.372-54.438 54.438-54.438h76.669z" fill="#2b4d66"/><path d="m451.994 152.49c0 26.218-21.254 47.483-47.483 47.483h-313.17c-13.115 0-24.988-5.316-33.578-13.905-8.589-8.6-13.905-20.463-13.905-33.578 0-.385 0-.758.011-1.142.604-25.702 21.627-46.341 47.472-46.341h313.17c13.115 0 24.988 5.316 33.578 13.906 8.337 8.337 13.598 19.782 13.895 32.435.01.384.01.757.01 1.142z" fill="#365e7d"/><path d="m391.049 179.88h-280.209c-7.879 0-14.266-6.387-14.266-14.266 0-7.879 6.387-14.266 14.266-14.266h11.749l153.781 33.344 110.381-33.344h4.297c7.879 0 14.266 6.387 14.266 14.266.001 7.879-6.386 14.266-14.265 14.266z" fill="#2b4d66"/><path d="m84.068 186.064c8.589 8.589 20.463 13.905 33.577 13.905h-26.305c-13.115 0-24.977-5.316-33.577-13.905-8.589-8.6-13.906-20.463-13.906-33.578 0-26.229 21.265-47.483 47.483-47.483h26.306c-26.229 0-47.483 21.254-47.483 47.483 0 13.115 5.316 24.977 13.905 33.578z" fill="#2b4d66"/><path d="m358.01 253.943h-235.73c-15.261 0-27.633-12.372-27.633-27.633 0-15.261 12.372-27.633 27.633-27.633h235.73c15.262 0 27.633 12.372 27.633 27.633.001 15.261-12.371 27.633-27.633 27.633z" fill="#ffcbbe"/><path d="m122.281 238.115c-6.51 0-11.805-5.296-11.805-11.805 0-6.51 5.296-11.805 11.805-11.805h235.729c6.51 0 11.805 5.296 11.805 11.805s-5.296 11.805-11.805 11.805z" fill="#eaac9d"/><path d="m344.706 207.936c0 6.843 2.285 13.159 6.14 18.222-3.855 5.064-6.14 11.379-6.14 18.222s2.285 13.159 6.14 18.222c-3.855 5.064-6.14 11.379-6.14 18.222s2.285 13.159 6.14 18.222c-3.855 5.063-6.14 11.379-6.14 18.222 0 16.608 13.51 30.129 30.129 30.129 6.579 0 11.917-5.327 11.917-11.906s-5.338-11.918-11.917-11.918c-3.482 0-6.305-2.834-6.305-6.305 0-3.482 2.823-6.316 6.305-6.316 6.579 0 11.917-5.327 11.917-11.906 0-6.58-5.338-11.918-11.917-11.918-3.482 0-6.305-2.834-6.305-6.305 0-3.482 2.823-6.316 6.305-6.316 6.579 0 11.917-5.327 11.917-11.907s-5.338-11.918-11.917-11.918c-3.482 0-6.305-2.823-6.305-6.304 0-3.482 2.823-6.316 6.305-6.316 6.579 0 11.917-5.327 11.917-11.907 0-6.579-5.338-11.918-11.917-11.918-3.482 0-6.305-2.823-6.305-6.305s2.823-6.316 6.305-6.316c6.579 0 11.917-5.327 11.917-11.906 0-6.58-5.338-11.918-11.917-11.918-3.482 0-6.305-2.823-6.305-6.305s2.823-6.316 6.305-6.316c6.579 0 11.917-7.249 11.917-13.829 0-.659-22.175 0-22.175 0h-12.139c-4.8 5.349-7.733 12.412-7.733 20.144 0 6.843 2.285 13.159 6.14 18.222-3.855 5.07-6.139 11.385-6.139 18.228z" fill="#785252"/><path d="m351.262 151.35h9.752v144.317l-34.503 13.88z" fill="#8b5e5e"/><path d="m332.49 481.69v18.68c-23.151 7.247-47.727 11.287-73.19 11.609-1.098.014-23.728-30.661-24.83-30.661-23.309 0-24.361 27.565-45.821 21.727-25.763-7.009-49.91-17.941-71.759-32.115 5.24-38.22 38.03-67.66 77.68-67.66h59.51c43.31 0 78.41 35.11 78.41 78.42z" fill="#365e7d"/><g fill="#2b4d66"><path d="m163.572 489.253c11.974 11.974 31.387 11.974 43.361 0l56.925-56.925-43.361-43.361-56.925 56.925c-11.973 11.974-11.973 31.387 0 43.361z"/><path d="m285.069 489.253c-11.974 11.974-31.387 11.974-43.361 0l-56.925-56.925 43.361-43.361 56.925 56.925c11.974 11.974 11.974 31.387 0 43.361z"/></g><path d="m259.3 428.38v83.6c-1.1.01-2.2.02-3.3.02-7.25 0-14.43-.3-21.53-.89-7.08-.59-14.07-1.47-20.98-2.63-8.42-1.41-16.71-3.23-24.84-5.44v-74.66z" fill="#efecef"/><path d="m234.47 428.38v82.73c-7.08-.59-14.07-1.47-20.98-2.63v-80.1z" fill="#dddaec"/><path d="m246.74 403.27c-43.3 0-78.41 35.1-78.41 78.42v14.89c-18.2-6.63-35.43-15.27-51.44-25.65 5.24-38.23 38.02-67.66 77.68-67.66z" fill="#2b4d66"/><g fill="#dddaec"><path d="m163.572 463.965c11.974 11.974 31.387 11.974 43.361 0l56.925-56.925-43.361-43.361-56.925 56.925c-11.973 11.974-11.973 31.388 0 43.361z"/><path d="m285.069 463.965c-11.974 11.974-31.387 11.974-43.361 0l-56.925-56.925 43.361-43.361 56.925 56.925c11.974 11.974 11.974 31.388 0 43.361z"/></g><path d="m259.453 315.734v92.894c0 9.8-3.974 18.669-10.396 25.08-6.411 6.422-15.28 10.396-25.08 10.396-6.903 0-13.345-1.966-18.784-5.386-10.019-6.265-16.692-17.403-16.692-30.09v-92.894z" fill="#ffddce"/><path d="m259.453 315.734v88.532c-4.832.68-9.758 1.025-14.778 1.025-20.614 0-39.868-5.857-56.173-16.002v-73.556h70.951z" fill="#ffcbbe"/><path d="m205.193 351.795v86.922c-10.019-6.265-16.692-17.403-16.692-30.09v-56.832z" fill="#ffcbbe"/><path d="m351.262 151.347v131.357c0 58.862-47.725 106.587-106.587 106.587s-106.587-47.725-106.587-106.587v-64.651c0-14.784 27.376-48.769 32.824-66.706z" fill="#ffddce"/><path d="m275.528 384.754c-9.765 2.955-20.122 4.536-30.853 4.536-29.437 0-56.083-11.929-75.371-31.216-19.288-19.298-31.216-45.945-31.216-75.371l32.824-131.357h28.872v131.357c0 29.426 11.928 56.072 31.216 75.371 12.269 12.258 27.492 21.539 44.528 26.68z" fill="#ffcbbe"/><path d="m217.068 226.873c-7.475 0-13.535-6.06-13.535-13.535v-28.197c0-7.475 6.06-13.535 13.535-13.535 7.475 0 13.535 6.06 13.535 13.535v28.197c0 7.476-6.06 13.535-13.535 13.535z" fill="#2b4d66"/><path d="m300.532 226.873c-7.475 0-13.535-6.06-13.535-13.535v-28.197c0-7.475 6.06-13.535 13.535-13.535 7.475 0 13.535 6.06 13.535 13.535v28.197c0 7.476-6.06 13.535-13.535 13.535z" fill="#2b4d66"/><path d="m245.268 151.347h27.064v103.161h-27.064z" fill="#ffcbbe"/><path d="m275.012 234.643h-21.806c-8.375 0-15.164 6.789-15.164 15.164 0 8.375 6.789 15.164 15.164 15.164h21.806c8.375 0 15.164-6.789 15.164-15.164-.001-8.374-6.79-15.164-15.164-15.164z" fill="#ffcbbe"/><path d="m319.585 330.001h-105.194v-43.261c0-12.022 9.746-21.768 21.768-21.768h61.657c12.022 0 21.768 9.746 21.768 21.768v43.261z" fill="#8b5e5e"/><path d="m170.912 268.223v-116.873h-32.823v144.316 10.958 4.332c0 55.705 45.158 100.862 100.862 100.862h21.201c55.705 0 100.862-45.158 100.862-100.862v-15.289h-162.658c-15.157 0-27.444-12.287-27.444-27.444z" fill="#8b5e5e"/><path d="m280.241 409.81c-6.491 1.318-13.214 2.01-20.089 2.01h-21.199c-55.699 0-100.864-45.155-100.864-100.864v-159.606h32.831v116.879c0 15.157 12.28 27.438 27.438 27.438h1.098v15.289c-.001 48.834 34.697 89.562 80.785 98.854z" fill="#785252"/><path d="m138.088 212.742h49.265v15.377h-49.265z" fill="#365e7d"/><path d="m298.708 308.507c-17.968 17.968-47.204 17.968-65.172 0-3.098-3.098-3.098-8.121 0-11.219s8.121-3.098 11.219 0c11.782 11.782 30.952 11.782 42.734 0 3.098-3.098 8.121-3.098 11.219 0s3.098 8.121 0 11.219z" fill="#785252"/><path d="m138.681 207.936c0 3.482 2.834 6.305 6.305 6.305 6.579 0 11.917 5.338 11.917 11.918 0 6.579-5.338 11.907-11.917 11.907-3.471 0-6.305 2.834-6.305 6.316s2.834 6.304 6.305 6.304c6.579 0 11.917 5.338 11.917 11.918s-5.338 11.907-11.917 11.907c-3.471 0-6.305 2.834-6.305 6.316 0 3.471 2.834 6.305 6.305 6.305 6.579 0 11.917 5.338 11.917 11.918 0 6.579-5.338 11.906-11.917 11.906-3.471 0-6.305 2.834-6.305 6.316 0 3.471 2.834 6.305 6.305 6.305 6.579 0 11.917 5.338 11.917 11.918s-5.338 11.906-11.917 11.906c-16.608 0-30.129-13.521-30.129-30.129 0-6.843 2.296-13.159 6.151-18.222-3.855-5.064-6.151-11.379-6.151-18.222s2.296-13.159 6.151-18.222c-3.855-5.063-6.151-11.379-6.151-18.222s2.296-13.159 6.151-18.222c-3.855-5.064-6.151-11.379-6.151-18.222s2.296-13.159 6.151-18.222c-3.855-5.064-6.151-11.379-6.151-18.222 0-7.733 2.933-14.795 7.733-20.144h34.149c.11.626.165 1.263.165 1.922 0 6.579-5.338 11.907-11.917 11.907-3.471 0-6.305 2.834-6.305 6.316s2.834 6.305 6.305 6.305c6.579 0 11.917 5.338 11.917 11.918 0 6.579-5.338 11.906-11.917 11.906-3.473-.006-6.306 2.828-6.306 6.31z" fill="#8b5e5e"/><path d="m149.117 346.672c-1.29.47-2.68.73-4.13.73-16.61 0-30.13-13.52-30.13-30.13 0-6.84 2.3-13.16 6.15-18.22-3.85-5.07-6.15-11.38-6.15-18.23 0-6.84 2.3-13.15 6.15-18.22-3.85-5.06-6.15-11.38-6.15-18.22s2.3-13.16 6.15-18.22c-3.85-5.07-6.15-11.38-6.15-18.22 0-6.85 2.3-13.16 6.15-18.23-3.85-5.06-6.15-11.38-6.15-18.22 0-7.73 2.93-14.79 7.73-20.14h10.72c-4.8 5.35-7.73 12.41-7.73 20.14 0 6.84 2.29 13.16 6.15 18.22-3.86 5.07-6.15 11.38-6.15 18.23 0 6.84 2.29 13.15 6.15 18.22-3.86 5.06-6.15 11.38-6.15 18.22s2.29 13.16 6.15 18.22c-3.86 5.07-6.15 11.38-6.15 18.22 0 6.85 2.29 13.16 6.15 18.23-3.86 5.06-6.15 11.38-6.15 18.22 0 14.35 10.08 26.39 23.54 29.4z" fill="#785252"/><path d="m259.668 220.436c0 19.968-16.19 36.148-36.159 36.148s-36.159-16.179-36.159-36.148c0-12.588 6.425-23.67 16.179-30.14 5.723-3.811 12.598-6.019 19.98-6.019 2.427 0 4.8.242 7.095.703 16.575 3.295 29.064 17.904 29.064 35.456z" fill="#e4f6ff"/><path d="m360.477 220.436c0 19.968-16.19 36.148-36.159 36.148s-36.159-16.179-36.159-36.148c0-.516.011-1.033.033-1.549.659-15.729 11.368-28.854 25.878-33.138 3.251-.955 6.689-1.472 10.248-1.472 19.969 0 36.159 16.179 36.159 36.159z" fill="#e4f6ff"/><path d="m230.604 184.98v28.36c0 7.469-6.063 13.532-13.532 13.532-7.48 0-13.543-6.063-13.543-13.532v-23.044c5.723-3.811 12.598-6.019 19.98-6.019 2.427 0 4.8.242 7.095.703z" fill="#707dd3"/><path d="m314.07 185.749v27.591c0 7.469-6.063 13.532-13.543 13.532-5.492 0-10.226-3.273-12.335-7.985.66-15.729 11.369-28.854 25.878-33.138z" fill="#707dd3"/><g fill="#365e7d"><path d="m223.511 264.278c-24.177 0-43.847-19.67-43.847-43.847s19.669-43.847 43.847-43.847 43.847 19.669 43.847 43.847-19.67 43.847-43.847 43.847zm0-72.317c-15.698 0-28.469 12.771-28.469 28.469 0 15.699 12.771 28.47 28.469 28.47s28.469-12.771 28.469-28.47c0-15.698-12.771-28.469-28.469-28.469z"/><path d="m324.319 264.278c-24.177 0-43.847-19.67-43.847-43.847s19.669-43.847 43.847-43.847 43.847 19.669 43.847 43.847-19.669 43.847-43.847 43.847zm0-72.317c-15.698 0-28.469 12.771-28.469 28.469 0 15.699 12.771 28.47 28.469 28.47s28.469-12.771 28.469-28.47c.001-15.698-12.771-28.469-28.469-28.469z"/><path d="m259.669 212.742h28.492v15.377h-28.492z"/></g></g></g></svg>